<svg xmlns="http://www.w3.org/2000/svg" viewBox="0 0 1200 900" width="1200" height="900" role="img" aria-label="Platzhalter: Galerie 06 · dein Foto">
<defs>
<filter id="mbn" x="0" y="0" width="100%" height="100%"><feTurbulence type="fractalNoise" baseFrequency=".012 .02" numOctaves="3" seed="26"/><feColorMatrix type="matrix" values="0 0 0 0 .46  0 0 0 0 .44  0 0 0 0 .40  0 0 0 .22 0"/></filter><filter id="mbg" x="0" y="0" width="100%" height="100%"><feTurbulence type="fractalNoise" baseFrequency=".9" numOctaves="2" seed="33"/><feColorMatrix type="matrix" values="0 0 0 0 0  0 0 0 0 0  0 0 0 0 0  0 0 0 .07 0"/></filter><linearGradient id="mbl" x1="0" y1="0" x2="1" y2="1"><stop offset="0" stop-color="#F6F3EC"/><stop offset=".55" stop-color="#1A2130"/><stop offset="1" stop-color="#DCD6C8"/></linearGradient>
</defs>
<rect width="100%" height="100%" fill="#0F1420"/>
<rect width="100%" height="100%" filter="url(#mbn)" opacity="0.5"/>
<path d="M897 182 Q702 252 614 255 Q763 90 868 -75 Q991 78 998 252 Q1219 298 1328 458" fill="none" stroke="#3b4a66" stroke-width="1.5" stroke-opacity="0.33"/><path d="M155 538 Q302 741 481 867 Q231 1040 30 1204 Q-209 1052 -330 875 Q-259 980 -272 1103" fill="none" stroke="#3b4a66" stroke-width="1.4" stroke-opacity="0.32"/><path d="M1057 225 Q1260 186 1479 142 Q1273 15 1056 -164 Q822 -164 619 -231 Q859 -426 1090 -526" fill="none" stroke="#3b4a66" stroke-width="1.4" stroke-opacity="0.58"/><path d="M848 523 Q596 328 407 233 Q213 447 55 563 Q230 686 306 762 Q219 695 159 740" fill="none" stroke="#3b4a66" stroke-width="0.6" stroke-opacity="0.45"/><path d="M627 875 Q682 1000 743 1105 Q837 928 1046 769 Q894 704 847 717 Q598 699 461 796" fill="none" stroke="#3b4a66" stroke-width="1.3" stroke-opacity="0.40"/>
<rect width="100%" height="100%" filter="url(#mbg)"/>
<rect x="72" y="72" width="1056" height="756" fill="none" stroke="#DCEAF7" stroke-opacity=".25" stroke-width="1"/>
<text x="50%" y="513" text-anchor="middle" font-family="Cormorant Garamond, Georgia, serif" font-weight="300" font-size="198" fill="#DCEAF7" fill-opacity=".55">VI</text>
<text x="50%" y="768" text-anchor="middle" font-family="Inter, Helvetica, Arial, sans-serif" font-size="25" letter-spacing="5.4" fill="#DCEAF7" fill-opacity=".55">GALERIE 06 · DEIN FOTO</text>
</svg>