<svg xmlns="http://www.w3.org/2000/svg" viewBox="0 0 960 1200" width="960" height="1200" role="img" aria-label="Platzhalter: Projekt 03 · Bild">
<defs>
<filter id="mbn" x="0" y="0" width="100%" height="100%"><feTurbulence type="fractalNoise" baseFrequency=".012 .02" numOctaves="3" seed="43"/><feColorMatrix type="matrix" values="0 0 0 0 .46  0 0 0 0 .44  0 0 0 0 .40  0 0 0 .22 0"/></filter><filter id="mbg" x="0" y="0" width="100%" height="100%"><feTurbulence type="fractalNoise" baseFrequency=".9" numOctaves="2" seed="50"/><feColorMatrix type="matrix" values="0 0 0 0 0  0 0 0 0 0  0 0 0 0 0  0 0 0 .07 0"/></filter><linearGradient id="mbl" x1="0" y1="0" x2="1" y2="1"><stop offset="0" stop-color="#F6F3EC"/><stop offset=".55" stop-color="#1A2130"/><stop offset="1" stop-color="#DCD6C8"/></linearGradient>
</defs>
<rect width="100%" height="100%" fill="#0F1420"/>
<rect width="100%" height="100%" filter="url(#mbn)" opacity="0.5"/>
<path d="M37 835 Q-79 853 -236 800 Q-312 791 -272 798 Q-316 998 -370 1136 Q-354 1019 -421 825" fill="none" stroke="#3b4a66" stroke-width="1.0" stroke-opacity="0.28"/><path d="M492 595 Q597 651 701 689 Q601 525 607 255 Q783 160 867 60 Q725 282 562 401" fill="none" stroke="#3b4a66" stroke-width="1.3" stroke-opacity="0.28"/><path d="M598 944 Q754 887 904 782 Q810 896 648 1117 Q646 1066 719 990 Q852 1014 1079 1040" fill="none" stroke="#3b4a66" stroke-width="1.4" stroke-opacity="0.58"/><path d="M687 50 Q816 54 1045 147 Q844 263 727 306 Q570 267 427 339 Q293 488 45 727" fill="none" stroke="#3b4a66" stroke-width="1.3" stroke-opacity="0.60"/><path d="M868 1062 Q805 1219 743 1271 Q864 1422 899 1601 Q945 1458 1062 1210 Q1034 1270 989 1387" fill="none" stroke="#3b4a66" stroke-width="1.2" stroke-opacity="0.57"/>
<rect width="100%" height="100%" filter="url(#mbg)"/>
<rect x="58" y="58" width="845" height="1085" fill="none" stroke="#DCEAF7" stroke-opacity=".25" stroke-width="1"/>
<text x="50%" y="668" text-anchor="middle" font-family="Cormorant Garamond, Georgia, serif" font-weight="300" font-size="211" fill="#DCEAF7" fill-opacity=".55">III</text>
<text x="50%" y="1094" text-anchor="middle" font-family="Inter, Helvetica, Arial, sans-serif" font-size="27" letter-spacing="5.8" fill="#DCEAF7" fill-opacity=".55">PROJEKT 03 · BILD</text>
</svg>